<?xml version="1.0" encoding="UTF-8" standalone="no"?><svg xmlns="http://www.w3.org/2000/svg" xmlns:xlink="http://www.w3.org/1999/xlink" clip-rule="evenodd" stroke-miterlimit="10" viewBox="0 0 102 103"><desc>SVG generated by Keynote</desc><defs></defs><g transform="matrix(1.00, 0.00, -0.00, -1.00, 0.0, 103.0)"><g><clipPath id="clip0x608000eb7160"><path d="M 1.0 101.0 L 101.0 101.0 L 101.0 1.0 L 1.0 1.0 Z M 1.0 101.5 "></path></clipPath><g clip-path="url(#clip0x608000eb7160)"><image xlink:href="../../524A64CF-8346-4612-AEB3-13D03E94EA2C/assets/8727E46A978D0F4CEC9239881F818550.png" width="580.00" height="580.00" transform="matrix(0.50, 0.00, -0.00, -0.50, 1.0, 101.0)"></image></g></g><image xlink:href="../../524A64CF-8346-4612-AEB3-13D03E94EA2C/assets/D36393818790C8A8F03D62E5A5749117.png" width="72.00" height="27.00" transform="matrix(1.00, 0.00, -0.00, -1.00, 17.0, 62.0)"></image><g><clipPath id="clip0x608000eadc80"><path d="M -3.9 1.5 L 109.7 1.5 L 109.7 101.5 L -3.9 101.5 Z M -3.9 1.5 "></path></clipPath><g clip-path="url(#clip0x608000eadc80)"><text xml:space="preserve" font-family="Palatino-Roman,Palatino" font-size="32.0" fill="#FEFFFE" transform="matrix(1.00, 0.00, -0.00, -1.00, 16.3, 39.4)">H</text><text xml:space="preserve" font-family="Palatino-Roman,Palatino" font-size="32.0" fill="#FEFFFE" transform="matrix(1.00, 0.00, -0.00, -1.00, 42.9, 39.4)">e</text><text xml:space="preserve" font-family="Palatino-Roman,Palatino" font-size="32.0" fill="#FEFFFE" transform="matrix(1.00, 0.00, -0.00, -1.00, 58.3, 39.4)">r</text><text xml:space="preserve" font-family="Palatino-Roman,Palatino" font-size="32.0" fill="#FEFFFE" transform="matrix(1.00, 0.00, -0.00, -1.00, 70.4, 39.4)">e</text></g></g></g></svg>